PathFileType	4	(X/Y/Z)	 s11c0301.trc
DataRate	CameraRate	NumFrames	NumMarkers	Units	OrigDataRate	OrigDataStartFrame	OrigNumFrames
200	200	7	48	mm	200	501	2000
Frame#	Time	racr			lacr			c7			jug			rlel			rdr			llel			ldr			s2			lic			ric			lasi			rasi			rpsi			lpsi			rgt			lgt			rth1			rth2			rth3			rth4			rlfc			rmfc			rsh1			rsh2			rsh3			rsh4			rlmal			rcal			rtoe			rmt5			lth1			lth2			lth4			lth3			llfc			lmfc			llmal			lcal			lmt5			lsh1			lsh2			lsh3			lsh4			ltoe			SBIKE			LBIKE			RBIKE			
		X1	Y1	Z1	X2	Y2	Z2	X3	Y3	Z3	X4	Y4	Z4	X5	Y5	Z5	X6	Y6	Z6	X7	Y7	Z7	X8	Y8	Z8	X9	Y9	Z9	X10	Y10	Z10	X11	Y11	Z11	X12	Y12	Z12	X13	Y13	Z13	X14	Y14	Z14	X15	Y15	Z15	X16	Y16	Z16	X17	Y17	Z17	X18	Y18	Z18	X19	Y19	Z19	X20	Y20	Z20	X21	Y21	Z21	X22	Y22	Z22	X23	Y23	Z23	X24	Y24	Z24	X25	Y25	Z25	X26	Y26	Z26	X27	Y27	Z27	X28	Y28	Z28	X29	Y29	Z29	X30	Y30	Z30	X31	Y31	Z31	X32	Y32	Z32	X33	Y33	Z33	X34	Y34	Z34	X35	Y35	Z35	X36	Y36	Z36	X37	Y37	Z37	X38	Y38	Z38	X39	Y39	Z39	X40	Y40	Z40	X41	Y41	Z41	X42	Y42	Z42	X43	Y43	Z43	X44	Y44	Z44	X45	Y45	Z45	X46	Y46	Z46	X47	Y47	Z47	X48	Y48	Z48	
501	2.5050	717.729610	1376.306485	-37.278125	736.100473	1375.978127	-346.846504	702.588760	1476.616407	-199.140325	672.743632	1296.183347	-199.666026	608.464556	1127.322245	67.835112	783.185254	941.357601	-34.437656	605.723007	1144.885068	-527.277003	804.937344	926.024059	-433.481782	105.261671	1349.592428	-260.648111	329.039333	1300.665186	-447.578295	301.720058	1334.041704	-51.140353	343.322898	1224.303742	-417.635978	316.810892	1265.176298	-94.989747	157.047375	1417.012017	-210.300064	162.808913	1399.074021	-307.195221	253.363424	1218.090949	-32.446433	199.960605	1177.953882	-452.793130	363.416301	1119.617108	-38.293367	444.874806	1084.794476	-51.132413	497.006568	1015.186137	-62.241563	464.947609	1113.704169	-63.356242	584.123953	941.798487	-86.469208	578.299347	923.687834	-219.158937	510.482773	797.379375	-67.814783	480.056791	715.416898	-83.093037	415.258157	657.538062	-80.087557	501.637829	704.870888	-115.436118	321.004678	546.350278	-85.902121	250.989588	550.247820	-131.468396	508.454730	421.855338	-131.985864	434.641380	420.196150	-61.840542	266.359568	1040.051099	-467.146734	314.894037	969.995644	-458.838787	348.996510	981.560935	-450.946460	322.378845	880.714912	-454.287849	351.592249	740.026497	-427.350289	359.122050	731.528430	-300.553899	97.349982	384.937253	-417.347769	31.252433	380.181472	-383.419416	158.441771	211.229756	-440.676129	276.513702	634.832399	-452.055305	249.672635	554.921199	-436.186241	185.783527	493.902311	-436.033836	274.567857	542.296520	-409.463777	244.371905	167.093374	-374.599665	-203.706764	958.624780	-259.825739	1.553372	83.948805	-460.662905	-14.978712	81.747658	-62.381632	
502	2.5100	717.891247	1372.681154	-36.952766	736.201575	1370.718928	-346.421127	704.204175	1473.625311	-198.497908	672.487638	1293.841279	-199.417415	606.266971	1124.328598	67.122761	782.500766	941.522276	-34.372582	604.403153	1142.868357	-528.773912	804.471186	925.595903	-433.706759	106.324691	1352.383919	-261.268108	329.186948	1301.615984	-447.964457	301.817953	1333.265187	-51.543041	342.675953	1224.159141	-419.015298	316.380792	1264.140708	-95.113533	160.220880	1419.312202	-214.131748	164.275612	1400.795730	-307.094036	252.305515	1218.250523	-33.320795	200.793846	1179.833524	-453.736810	360.352741	1116.979867	-39.129549	441.218533	1080.566643	-51.737800	492.170728	1010.137900	-62.813766	461.957325	1109.383198	-63.595599	578.246313	935.187718	-87.579372	572.252334	916.535190	-218.741052	506.324477	788.841636	-68.513730	476.914961	706.719744	-84.129577	413.032883	647.734836	-81.013925	497.758644	696.249255	-117.371350	320.580931	535.909846	-87.232101	250.156255	536.881614	-132.460981	512.445128	418.650181	-131.440431	438.505713	414.327769	-61.509696	268.723421	1042.054519	-468.059605	317.745400	972.444736	-459.453193	351.684928	984.298089	-451.405568	325.968794	883.224098	-454.856915	355.820759	742.860852	-428.253458	362.468135	734.754459	-301.295454	94.626642	392.250201	-416.728625	28.619883	388.347129	-382.903258	153.481320	217.846662	-440.896475	279.052314	638.077203	-452.391933	250.891151	558.816794	-436.323821	185.875302	498.795679	-435.603184	275.541027	545.863563	-409.438063	238.765177	172.437404	-374.822422	-203.777041	958.395696	-260.061728	1.543899	83.688684	-460.724521	-15.002691	81.628692	-62.406292	
503	2.5150	718.230962	1369.106078	-36.629259	736.299336	1365.676309	-346.727687	705.762487	1470.689709	-197.900147	672.281277	1291.337904	-199.501733	604.090229	1121.671675	66.293894	781.658288	941.282587	-34.293822	603.215316	1140.637701	-530.351030	804.084965	925.161596	-433.694915	107.238050	1354.673562	-261.712320	329.470455	1302.399937	-448.384697	302.078251	1331.975775	-51.959633	342.101558	1223.908307	-420.419636	316.168363	1262.359200	-95.520739	163.035976	1420.935224	-216.783379	165.752803	1402.224898	-307.588472	251.616118	1216.934529	-34.978281	201.950350	1181.614675	-454.851281	357.569401	1113.636983	-39.830856	437.772438	1075.917344	-52.239817	487.382520	1004.410541	-63.330165	459.212830	1104.348542	-63.879560	572.169749	928.042685	-88.041890	565.870699	908.455203	-217.804919	501.931242	779.683234	-69.391031	473.398343	697.228808	-84.933697	410.582865	637.695219	-81.621404	494.588010	687.738980	-117.919715	319.836393	525.052727	-88.294044	249.230638	523.304308	-133.570270	515.884205	414.805172	-130.693020	441.784739	407.902036	-61.147558	270.997643	1044.081360	-468.963024	320.361057	974.777236	-460.103703	354.190677	986.826909	-451.955342	329.201768	885.557477	-455.432661	359.783517	745.454006	-429.147409	365.661823	737.857957	-301.975823	91.847582	399.783128	-415.947809	25.839634	396.628368	-382.489303	148.813517	224.866900	-441.098722	281.432167	641.177372	-452.784925	251.759274	562.448107	-436.287633	185.524358	503.938907	-435.248037	276.221968	549.255871	-409.485159	233.617233	178.415593	-375.071018	-203.802894	958.279753	-260.384980	1.489173	83.467921	-460.758970	-15.047302	81.531396	-62.465834	
504	2.5200	718.661455	1365.501125	-36.333819	736.499635	1361.241784	-347.870285	707.303352	1467.941882	-197.439677	672.256989	1289.103013	-199.578040	602.065406	1119.112788	65.482490	780.708219	940.984258	-34.334697	602.222118	1138.447974	-532.073224	803.751140	924.800608	-433.733578	108.226004	1356.624791	-262.333556	329.815405	1302.960681	-448.757414	302.466694	1330.112805	-52.369923	341.688284	1223.499818	-421.616631	316.114374	1260.211488	-95.913626	165.016775	1421.744395	-217.523132	166.986466	1403.197245	-307.519769	250.825438	1214.464678	-36.376947	203.002187	1183.059442	-455.740825	354.995931	1109.589934	-40.490764	434.561787	1070.403782	-52.639196	482.834898	997.930151	-63.815097	456.555088	1098.436059	-64.299956	565.677494	919.726675	-88.087152	559.520480	899.970315	-217.196996	496.999165	770.295293	-69.909010	469.575758	687.584040	-86.697031	407.668417	626.501403	-82.774060	490.086982	678.126148	-119.139025	319.076734	513.938552	-89.070308	248.524328	509.488179	-134.716792	518.927277	410.540281	-129.741976	444.609144	401.112321	-60.629868	273.159102	1045.912492	-469.936514	322.885080	976.855244	-460.824623	356.560773	989.007640	-452.722687	332.089819	887.727021	-456.075171	363.386092	747.744914	-430.065501	368.778089	740.697053	-302.617545	89.048095	407.438982	-415.345893	23.045146	404.889920	-382.162858	144.317428	232.221668	-441.479930	283.619860	644.208149	-453.296694	252.328946	566.306697	-436.445820	184.978930	509.133283	-435.252084	276.743646	552.517340	-409.820051	228.834161	185.041235	-375.524050	-203.840585	958.168295	-260.572863	1.439353	83.219257	-460.905028	-15.117562	81.445011	-62.510266	
505	2.5250	719.135989	1362.061039	-36.056974	736.858157	1357.830336	-349.743745	708.766333	1465.428889	-197.009324	672.600583	1286.844286	-199.642715	599.800382	1116.496605	64.196844	779.654154	940.619499	-34.563600	601.398345	1136.028339	-533.864505	803.281844	924.546283	-433.828552	109.116414	1357.912899	-263.673035	330.276210	1303.315941	-449.148951	302.977643	1327.781358	-52.780702	341.384971	1223.075180	-422.717648	316.210100	1257.482643	-96.363263	166.528972	1421.879997	-217.835769	168.252192	1403.773291	-308.151473	249.889836	1211.273101	-37.449672	204.428755	1184.552974	-456.946214	352.626967	1105.191904	-41.132458	431.473153	1064.591279	-52.958746	478.649068	991.239908	-64.607752	453.996459	1091.984971	-64.509970	560.008220	911.220085	-89.707631	553.567715	891.602968	-217.763742	491.479905	760.614004	-70.104047	465.774595	677.279876	-87.530463	404.929600	615.349968	-83.460142	486.074284	668.559629	-120.134724	318.032756	502.253911	-89.926872	248.083407	495.731574	-135.848225	521.426802	405.679651	-128.683976	446.953887	393.834316	-60.054663	275.250742	1047.613352	-470.937125	325.219473	978.814506	-461.674383	358.837098	991.133956	-453.634919	334.837028	889.726998	-456.776976	366.696283	749.785963	-430.977714	371.911726	743.226612	-303.341748	86.328936	415.178030	-414.961933	20.221005	413.336832	-381.925708	140.022156	239.868589	-442.137108	285.763078	647.301449	-453.931501	252.776775	570.162970	-436.871712	184.277013	514.423786	-435.617207	277.010354	555.795726	-410.458738	224.454793	192.147527	-376.025417	-203.897154	958.085452	-260.772463	1.402501	83.081801	-460.960455	-15.176026	81.359929	-62.557732	
506	2.5300	719.562324	1358.917710	-35.608296	737.454594	1355.434713	-352.056844	710.149275	1462.753385	-196.576959	672.952495	1284.829089	-200.090337	597.674478	1113.949732	63.050147	778.597948	940.318994	-34.586611	600.834542	1133.616084	-535.682751	802.664805	924.373599	-433.900789	109.997642	1358.671434	-264.202094	330.847435	1303.530638	-449.491073	303.458960	1324.936029	-53.017933	341.332888	1222.699143	-423.600707	316.554438	1254.295184	-96.635003	167.669008	1421.402935	-217.908895	169.466417	1403.975100	-308.494105	248.914170	1207.724642	-38.345966	205.710505	1185.617835	-457.963834	350.462853	1100.351828	-41.738143	428.590367	1058.186867	-53.322129	474.346245	984.050469	-65.187640	451.677702	1085.296707	-64.699507	552.976863	902.140394	-87.767349	547.678894	882.614442	-216.460575	486.054805	750.413868	-70.337074	461.750339	666.848657	-88.131768	402.029204	603.732960	-84.017186	482.002522	658.633736	-120.872174	317.290210	490.742462	-90.468318	247.766958	482.319308	-136.535105	523.627855	400.180133	-128.040617	449.217007	386.244941	-59.641325	277.280391	1049.169197	-471.950776	327.445613	980.567115	-462.596924	361.027872	993.010694	-454.680394	337.393546	891.522038	-457.673672	369.973017	751.626244	-432.144956	375.000467	745.448544	-304.104952	83.713053	422.924090	-414.852726	17.508987	421.837932	-381.716163	136.072097	247.861468	-442.929707	287.766999	650.438362	-454.449303	253.195441	573.998290	-437.575500	183.516446	519.765573	-436.132263	277.173619	559.039567	-411.182920	220.607607	199.926887	-376.728944	-203.980068	957.992544	-260.858832	1.330747	82.881867	-461.021037	-15.260625	81.293827	-62.542503	
507	2.5350	720.073020	1355.999823	-34.804271	738.865583	1354.400359	-356.336439	711.378419	1460.395075	-196.417159	673.407133	1282.904600	-200.654202	595.336753	1111.543427	61.732008	777.466759	940.080615	-34.526457	600.439507	1131.342155	-537.422109	802.116722	924.286356	-434.040756	110.765259	1358.840521	-264.666840	331.596915	1303.565897	-449.672490	304.001132	1321.752576	-53.295696	341.525641	1222.358719	-424.071857	317.014102	1250.668395	-97.116663	168.713194	1420.371191	-218.143293	170.280727	1403.794489	-308.373190	248.021522	1203.699439	-39.209583	207.086178	1186.481831	-459.130739	348.561315	1095.181767	-42.409929	425.927407	1051.620062	-53.615365	470.231282	976.514101	-65.841768	449.585546	1078.203794	-64.892834	545.747058	892.997600	-85.976751	540.237904	873.193271	-217.880490	480.530140	740.153779	-70.278040	457.616210	656.125688	-88.569603	399.064460	592.054105	-84.568921	477.807010	648.447729	-121.438630	316.811126	479.305901	-90.766890	247.334434	469.062956	-136.590702	525.500398	394.229518	-127.876103	451.317863	378.444163	-59.437232	279.209050	1050.494288	-472.997778	329.602690	982.095974	-463.594009	363.182106	994.599572	-455.905664	339.912680	892.908632	-458.754563	373.544164	753.349101	-433.443042	378.213740	747.283594	-304.939140	81.380444	430.723356	-414.924804	15.043994	430.395663	-381.807425	132.592209	255.926689	-443.422746	289.878286	653.449616	-455.378499	253.679902	577.877120	-438.428645	182.768089	525.143793	-436.656914	277.426892	562.379756	-412.181669	217.108935	207.866023	-376.898964	-204.114147	957.981197	-261.236264	1.276419	82.794607	-461.029319	-15.296458	81.191816	-62.535211	
